# xmcd CD database file
#
# Track frame offsets:
#	183
#	19210
#	34850
#	51738
#	67008
#	84443
#	96975
#	110528
#	128228
#	141300
#	156328
#	176713
#
# Disc length: 2446 seconds
#
# Revision: 1
# Processed by: cddbd v1.5.2PL0 Copyright (c) Steve Scherf et al.
# Submitted via: CDex 1.79
#
DISCID=b3098c0c
DTITLE=Hana Zagorova - Rozhovor v tichu
DYEAR=1991
DGENRE=Blues
TTITLE0=Rozhovor v tichu
TTITLE1=Krest ohnem
TTITLE2=Merilyn
TTITLE3=Vzdaleni
TTITLE4=Vim, ze se divas
TTITLE5=Nezname zalivy
TTITLE6=Jako stary strom
TTITLE7=Ricni kamen
TTITLE8=More samoty
TTITLE9=Zena za tvymi zady
TTITLE10=Obraz
TTITLE11=Neodchazej
EXTD=YEAR: 1991
EXTT0=Rozhovor v tichu
EXTT1=
EXTT2=
EXTT3=
EXTT4=
EXTT5=
EXTT6=
EXTT7=
EXTT8=
EXTT9=
EXTT10=
EXTT11=
PLAYORDER=
